{"title":"The Block - S12E16 - Guest Bedroom Reveals","uid":15855828,"size":524576544,"categoryP":"video","categoryS":"tv_shows","magnet":"?xt=urn:btih:103ee0de3716e5c7034c8da6997671210b8a615b&amp;dn=The+Block+-+S12E16+-+Guest+Bedroom+Reveals&amp;tr=udp%3A%2F%2Ftracker.leechers-paradise.org%3A6969&amp;tr=udp%3A%2F%2Fzer0day.ch%3A1337&amp;tr=udp%3A%2F%2Fopen.demonii.com%3A1337&amp;tr=udp%3A%2F%2Ftracker.coppersurfer.tk%3A6969&amp;tr=udp%3A%2F%2Fexodus.desync.com%3A6969","seeders":5,"leechers":2,"uploader":"Bullrout","files":1,"time":1474241039,"description":"The Block - S12E16 - Guest Bedroom Reveals\r\n\r\nIts reveal time for five guest bedrooms, four walk in wardrobes and one ensuite bathroom that impresses all three judges. For one couple, feedback from the judges is devastating and things go from bad to worse when the scores are revealed.\r\n\r\nComplete name                            : The Block - S12E16 - Guest Bedroom Reveals.mp4\r\nFormat                                   : MPEG-4\r\nFormat profile                           : Base Media / Version 2\r\nCodec ID                                 : mp42 (mp42/isom/avc1)\r\nFile size                                : 500 MiB\r\nDuration                                 : 1 h 3 min\r\nOverall bit rate mode                    : Variable\r\nOverall bit rate                         : 1 102 kb/s\r\n\r\nVideo\r\nID                                       : 2\r\nFormat                                   : AVC\r\nFormat/Info                              : Advanced Video Codec\r\nFormat profile                           :   \r\nFormat settings, CABAC                   : Yes\r\nFormat settings, ReFrames                : 3 frames\r\nCodec ID                                 : avc1\r\nCodec ID/Info                            : Advanced Video Coding\r\nDuration                                 : 1 h 3 min\r\nBit rate mode                            : Variable\r\nBit rate                                 : 971 kb/s\r\nMaximum bit rate                         : 1 000 kb/s\r\nWidth                                    : 720 pixels\r\nHeight                                   : 404 pixels\r\nDisplay aspect ratio                     : 16:9\r\nOriginal display aspect ratio            : 16:9\r\nFrame rate mode                          : Constant\r\nFrame rate                               : 25.000 FPS\r\nStandard                                 : PAL\r\nColor space                              : YUV\r\nChroma subsampling                       : 4:2:0\r\nBit depth                                : 8 bits\r\nScan type                                : Progressive\r\nBits/(Pixel*Frame)                       : 0.133\r\nStream size                              : 441 MiB (88%)\r\nWriting library                          : x264 core 112\r\nColor range                              : Limited\r\nColor primaries                          : BT.601 PAL\r\nTransfer characteristics                 : BT.470 System B, BT.470 System G\r\nMatrix coefficients                      : BT.601\r\n\r\nAudio\r\nID                                       : 1\r\nFormat                                   : AAC\r\nFormat/Info                              : Advanced Audio Codec\r\nFormat profile                           : LC\r\nCodec ID                                 : 40\r\nDuration                                 : 1 h 3 min\r\nBit rate mode                            : Variable\r\nBit rate                                 : 128 kb/s\r\nMaximum bit rate                         : 576 kb/s\r\nChannel(s)                               : 2 channels\r\nChannel positions                        : Front: L R\r\nSampling rate                            : 48.0 kHz\r\nFrame rate                               : 46.875 FPS (1024 spf)\r\nCompression mode                         : Lossy\r\nStream size                              : 58.1 MiB (12%)","torrent":{"xt":"urn:btih:103ee0de3716e5c7034c8da6997671210b8a615b","amp;dn":"The+Block+-+S12E16+-+Guest+Bedroom+Reveals","amp;tr":["udp%3A%2F%2Ftracker.leechers-paradise.org%3A6969","udp%3A%2F%2Fzer0day.ch%3A1337","udp%3A%2F%2Fopen.demonii.com%3A1337","udp%3A%2F%2Ftracker.coppersurfer.tk%3A6969","udp%3A%2F%2Fexodus.desync.com%3A6969"],"infoHash":"103ee0de3716e5c7034c8da6997671210b8a615b","infoHashBuffer":{"type":"Buffer","data":[16,62,224,222,55,22,229,199,3,76,141,166,153,118,113,33,11,138,97,91]},"announce":[],"urlList":[]}}